<?xml version="1.0" encoding="UTF-8"?>
<svg id="Camada_2" data-name="Camada 2" xmlns="http://www.w3.org/2000/svg" viewBox="0 0 314.08 314.08">
  <defs>
    <style>
      .cls-1 {
        fill: #0b1a35;
      }

      .cls-1, .cls-2 {
        stroke-width: 0px;
      }

      .cls-2 {
        fill: #96a3b7;
      }
    </style>
  </defs>
  <g id="Camada_1-2" data-name="Camada 1">
    <g>
      <rect class="cls-2" width="314.08" height="314.08" rx="34.56" ry="34.56"/>
      <g>
        <rect class="cls-1" x="157.14" y="109" width="2.6" height="97.85" transform="translate(-61.26 200.04) rotate(-55.76)"/>
        <path class="cls-1" d="m212.81,113.18h-91.98c-2.13,0-4.89,1.38-6.27,2.76l-10.53,10.53c-1.25,1.25-2.76,4.13-2.76,6.27v13.03c0,2.13,1.5,5.01,2.76,6.27l10.53,10.53c1.09,1.09,3.05,2.17,4.88,2.58v-18.5h.01v-13.28c0-1.38.63-2.13,2.01-2.13h91.35v-18.04Z"/>
        <path class="cls-1" d="m210.05,162.05l-10.53-10.53c-1.1-1.1-3.06-2.18-4.89-2.58v18.42h0s0,.05,0,.08v13.28c0,1.38-.63,2.13-2,2.13h-91.35v18.04h91.98c2.13,0,4.89-1.38,6.27-2.76l10.53-10.53c1.25-1.25,2.76-4.13,2.76-6.27v-13.03c0-2.13-1.5-5.01-2.76-6.27Z"/>
      </g>
    </g>
  </g>
</svg>