<svg width="182" height="228" viewBox="0 0 182 228" fill="none" xmlns="http://www.w3.org/2000/svg">
  <path d="M180.196 36.1515L144.954 0.909569C144.664 0.619867 144.32 0.390348 143.942 0.234242C143.563 0.0781366 143.157 -0.00146697 142.748 2.04663e-05H19.0294C18.2056 2.04663e-05 17.4155 0.327279 16.833 0.909803C16.2505 1.49233 15.9232 2.2824 15.9232 3.10621V15.7345H3.10619C2.6984 15.7341 2.29453 15.8142 1.91769 15.97C1.54084 16.1259 1.1984 16.3544 0.90993 16.6427C0.621461 16.9309 0.392624 17.2732 0.236493 17.6499C0.0803619 18.0266 -1.27217e-07 18.4304 0 18.8382V224.894C0 225.718 0.327259 226.508 0.909783 227.09C1.49231 227.673 2.28238 228 3.10619 228H162.076C162.9 228 163.69 227.673 164.273 227.09C164.855 226.508 165.182 225.718 165.182 224.894V212.266H177.999C178.407 212.266 178.811 212.186 179.188 212.03C179.565 211.874 179.907 211.646 180.196 211.357C180.484 211.069 180.713 210.727 180.869 210.35C181.025 209.973 181.106 209.57 181.106 209.162V38.3457C181.105 37.5227 180.778 36.7337 180.196 36.1515ZM174.888 206.056H22.1332V6.20996H139.654V38.3457C139.653 38.7535 139.733 39.1573 139.889 39.5342C140.045 39.911 140.274 40.2535 140.562 40.542C140.85 40.8304 141.192 41.0593 141.569 41.2154C141.946 41.3715 142.35 41.4519 142.757 41.4519H174.888V206.056ZM44.2001 82.3031H152.824C153.239 82.2914 153.652 82.3631 154.039 82.5139C154.426 82.6647 154.779 82.8916 155.076 83.181C155.374 83.4705 155.611 83.8167 155.772 84.1993C155.934 84.5818 156.017 84.9928 156.017 85.4081C156.017 85.8233 155.934 86.2344 155.772 86.6169C155.611 86.9994 155.374 87.3456 155.076 87.6351C154.779 87.9246 154.426 88.1514 154.039 88.3022C153.652 88.453 153.239 88.5247 152.824 88.513H44.2001C43.785 88.5247 43.3718 88.453 42.9849 88.3022C42.598 88.1514 42.2453 87.9246 41.9475 87.6351C41.6498 87.3456 41.4131 86.9994 41.2515 86.6169C41.0899 86.2344 41.0067 85.8233 41.0067 85.4081C41.0067 84.9928 41.0899 84.5818 41.2515 84.1993C41.4131 83.8167 41.6498 83.4705 41.9475 83.181C42.2453 82.8916 42.598 82.6647 42.9849 82.5139C43.3718 82.3631 43.785 82.2914 44.2001 82.3031ZM155.935 105.147C155.935 105.555 155.854 105.96 155.698 106.337C155.541 106.714 155.312 107.056 155.023 107.345C154.734 107.633 154.391 107.861 154.014 108.017C153.636 108.172 153.232 108.252 152.824 108.251H44.2001C43.785 108.263 43.3718 108.191 42.9849 108.04C42.598 107.889 42.2453 107.663 41.9475 107.373C41.6498 107.084 41.4131 106.737 41.2515 106.355C41.0899 105.972 41.0067 105.561 41.0067 105.146C41.0067 104.731 41.0899 104.32 41.2515 103.937C41.4131 103.555 41.6498 103.208 41.9475 102.919C42.2453 102.629 42.598 102.403 42.9849 102.252C43.3718 102.101 43.785 102.029 44.2001 102.041H152.824C153.232 102.04 153.637 102.12 154.014 102.276C154.391 102.432 154.734 102.661 155.023 102.949C155.312 103.238 155.542 103.58 155.698 103.957C155.854 104.335 155.935 104.739 155.935 105.147ZM155.935 124.885C155.935 125.293 155.854 125.698 155.698 126.075C155.541 126.452 155.312 126.794 155.023 127.082C154.734 127.371 154.391 127.599 154.014 127.755C153.636 127.91 153.232 127.99 152.824 127.989H44.2001C43.785 128.001 43.3718 127.929 42.9849 127.778C42.598 127.627 42.2453 127.4 41.9475 127.111C41.6498 126.822 41.4131 126.475 41.2515 126.093C41.0899 125.71 41.0067 125.299 41.0067 124.884C41.0067 124.469 41.0899 124.058 41.2515 123.675C41.4131 123.293 41.6498 122.946 41.9475 122.657C42.2453 122.367 42.598 122.141 42.9849 121.99C43.3718 121.839 43.785 121.767 44.2001 121.779H152.824C153.232 121.778 153.637 121.858 154.014 122.014C154.391 122.17 154.734 122.399 155.023 122.687C155.312 122.976 155.542 123.318 155.698 123.695C155.854 124.073 155.935 124.477 155.935 124.885ZM155.935 144.623C155.935 145.031 155.854 145.436 155.698 145.813C155.541 146.19 155.312 146.532 155.023 146.82C154.734 147.109 154.391 147.337 154.014 147.493C153.636 147.648 153.232 147.728 152.824 147.727H44.2001C43.785 147.739 43.3718 147.667 42.9849 147.516C42.598 147.365 42.2453 147.138 41.9475 146.849C41.6498 146.559 41.4131 146.213 41.2515 145.831C41.0899 145.448 41.0067 145.037 41.0067 144.622C41.0067 144.207 41.0899 143.796 41.2515 143.413C41.4131 143.031 41.6498 142.684 41.9475 142.395C42.2453 142.105 42.598 141.879 42.9849 141.728C43.3718 141.577 43.785 141.505 44.2001 141.517H152.824C153.232 141.516 153.637 141.596 154.014 141.752C154.391 141.908 154.734 142.136 155.023 142.425C155.312 142.713 155.542 143.056 155.698 143.433C155.854 143.81 155.935 144.215 155.935 144.623ZM155.935 164.361C155.935 164.769 155.854 165.173 155.698 165.55C155.541 165.928 155.312 166.27 155.023 166.558C154.734 166.847 154.391 167.075 154.014 167.231C153.636 167.386 153.232 167.466 152.824 167.465H44.2001C43.785 167.476 43.3718 167.405 42.9849 167.254C42.598 167.103 42.2453 166.876 41.9475 166.587C41.6498 166.297 41.4131 165.951 41.2515 165.569C41.0899 165.186 41.0067 164.775 41.0067 164.36C41.0067 163.945 41.0899 163.534 41.2515 163.151C41.4131 162.768 41.6498 162.422 41.9475 162.133C42.2453 161.843 42.598 161.616 42.9849 161.466C43.3718 161.315 43.785 161.243 44.2001 161.255H152.824C153.232 161.254 153.637 161.334 154.014 161.49C154.391 161.646 154.734 161.874 155.023 162.163C155.312 162.451 155.542 162.794 155.698 163.171C155.854 163.548 155.935 163.953 155.935 164.361ZM41.0939 66.907C41.0939 66.0832 41.4212 65.2931 42.0037 64.7106C42.5862 64.128 43.3763 63.8008 44.2001 63.8008H101.914C102.329 63.7891 102.742 63.8608 103.129 64.0116C103.516 64.1624 103.868 64.3892 104.166 64.6787C104.464 64.9682 104.701 65.3144 104.862 65.6969C105.024 66.0795 105.107 66.4905 105.107 66.9058C105.107 67.321 105.024 67.732 104.862 68.1146C104.701 68.4971 104.464 68.8433 104.166 69.1328C103.868 69.4223 103.516 69.6491 103.129 69.7999C102.742 69.9507 102.329 70.0224 101.914 70.0107H44.2001C43.7923 70.011 43.3885 69.931 43.0116 69.7752C42.6348 69.6193 42.2923 69.3908 42.0039 69.1025C41.7154 68.8143 41.4866 68.472 41.3304 68.0953C41.1743 67.7186 41.0939 67.3148 41.0939 66.907ZM41.0939 52.1973C41.0939 51.3735 41.4212 50.5834 42.0037 50.0009C42.5862 49.4184 43.3763 49.0911 44.2001 49.0911H79.1332C79.957 49.0911 80.747 49.4184 81.3296 50.0009C81.9121 50.5834 82.2394 51.3735 82.2394 52.1973C82.2394 53.0211 81.9121 53.8112 81.3296 54.3937C80.747 54.9762 79.957 55.3035 79.1332 55.3035H44.2001C43.7912 55.3035 43.3863 55.2228 43.0086 55.0659C42.6309 54.909 42.288 54.6791 41.9994 54.3894C41.7108 54.0997 41.4822 53.7558 41.3269 53.3775C41.1715 52.9992 41.0923 52.594 41.0939 52.185V52.1973Z" fill="#CBB3A7"/>
</svg>
