<svg width="17" height="17" viewBox="0 0 17 17" fill="none" xmlns="http://www.w3.org/2000/svg">
  <path d="M12.8945 4.78809C13.123 5.04199 13.25 5.32129 13.25 5.65137V14.0811C13.25 14.4365 13.123 14.7158 12.8945 14.9443C12.6406 15.1982 12.3613 15.2998 12.0312 15.2998H4.71875C4.36328 15.2998 4.08398 15.1982 3.85547 14.9443C3.60156 14.7158 3.5 14.4365 3.5 14.0811V3.51855C3.5 3.18848 3.60156 2.90918 3.85547 2.65527C4.08398 2.42676 4.36328 2.2998 4.71875 2.2998H9.89844C10.2285 2.2998 10.5078 2.42676 10.7617 2.65527L12.8945 4.78809ZM11.9297 5.5498L10 3.62012V5.5498H11.9297ZM4.71875 14.0811H12.0312V6.76855H9.39062C9.21289 6.76855 9.06055 6.71777 8.95898 6.59082C8.83203 6.48926 8.78125 6.33691 8.78125 6.15918V3.51855H4.71875V14.0811ZM11.0664 10.4248C11.168 10.5264 11.2187 10.6787 11.2187 10.8311C11.2187 10.9834 11.168 11.1357 11.0664 11.2373C10.9648 11.3643 10.8379 11.415 10.6348 11.415C10.4316 11.415 10.2031 11.3896 9.94922 11.3135C9.69531 11.2373 9.44141 11.1357 9.21289 10.9834C8.9082 11.0342 8.42578 11.1865 7.79102 11.3896L7.48633 11.4912C7.18164 11.999 6.87695 12.3799 6.62305 12.6084C6.39453 12.8115 6.19141 12.8877 6.01367 12.8623C5.83594 12.8623 5.70898 12.7861 5.63281 12.6592C5.53125 12.5322 5.50586 12.4053 5.53125 12.2783C5.60742 11.9229 6.03906 11.5166 6.82617 11.1104C7.08008 10.6533 7.38477 10.0186 7.74023 9.23144C7.51172 8.41895 7.46094 7.86035 7.5625 7.53027C7.58789 7.37793 7.68945 7.27637 7.86719 7.22559C8.01953 7.1748 8.19727 7.1748 8.34961 7.25098C8.50195 7.32715 8.57812 7.47949 8.62891 7.68262C8.70508 7.93652 8.6543 8.39355 8.50195 9.05371V9.0791C8.70508 9.63769 9.00977 10.0186 9.44141 10.2725C10.3047 10.1709 10.8379 10.2217 11.0664 10.4248ZM6.03906 12.4053C6.03906 12.4307 6.06445 12.4053 6.14062 12.3545C6.19141 12.3037 6.29297 12.2275 6.39453 12.1006C6.52148 11.9482 6.67383 11.7705 6.82617 11.5166L6.72461 11.5928C6.31836 11.9482 6.08984 12.2021 6.03906 12.4053ZM8.12109 7.55566C8.07031 7.55566 8.07031 7.70801 8.07031 7.96191C8.07031 8.24121 8.0957 8.44434 8.17188 8.59668C8.22266 8.49512 8.24805 8.29199 8.24805 7.9873C8.24805 7.70801 8.19727 7.55566 8.12109 7.55566ZM7.48633 11.0342L7.79102 10.9072C8.24805 10.7295 8.60352 10.6025 8.88281 10.5518C8.57812 10.3486 8.32422 10.0439 8.12109 9.63769C7.89258 10.2471 7.68945 10.7041 7.48633 11.0342ZM10.8379 10.9072C10.8633 10.9072 10.8633 10.8818 10.8125 10.8311C10.7617 10.7803 10.6855 10.7549 10.5332 10.7295C10.3809 10.7041 10.1523 10.7041 9.89844 10.7041C10.127 10.8057 10.3301 10.8818 10.5078 10.9072C10.6094 10.958 10.7109 10.958 10.7617 10.9326C10.7871 10.9326 10.8125 10.9326 10.8379 10.9072Z" fill="white"/>
</svg>
